#!OML:ASF F:\VICON\USERDATA\INSTALL\rory3\rory3.ASF
:FULLY-SPECIFIED
:DEGREES
90
root -0.582462 17.5761 4.77169 5.94697 -65.4713 13.6875
lowerback -10.4513 -1.07355 7.04842
upperback -11.4133 -2.35728 -0.669028
thorax -6.58596 -1.96538 -4.72829
lowerneck -7.85606 15.832 8.88876
upperneck 19.5998 20.6615 -1.04149
head 8.41452 10.3299 0.426256
rclavicle -1.15295e-014 1.19271e-014
rhumerus 3.30235 -23.7659 15.4807
rradius 117.514
rwrist -59.2103
rhand -5.64658 -48.0735
rfingers 7.12502
rthumb 20.1721 -77.0462
lclavicle -1.15295e-014 1.19271e-014
lhumerus 30.5285 24.0933 -7.02383
lradius 32.3091
lwrist 54.619
lhand -21.3482 -26.6615
lfingers 7.12502
lthumb 5.03814 3.25856
rfemur -9.42469 1.42007 -4.54987
rtibia 25.3155
rfoot -2.02088 -20.8884
rtoes -9.76046
lfemur -19.1848 1.03978 -33.0388
ltibia 12.6951
lfoot -10.3488 -4.17596
ltoes 16.3457
91
root -0.57593 17.5759 4.76313 5.98457 -65.3732 13.6345
lowerback -10.5275 -1.06284 7.12566
upperback -11.3697 -2.34932 -0.613974
thorax -6.49609 -1.95885 -4.71678
lowerneck -7.64489 15.7974 8.87033
upperneck 19.6069 20.7093 -1.3896
head 8.41983 10.322 0.312183
rclavicle -3.22031e-014 -3.26007e-014
rhumerus 3.54191 -23.6553 15.2665
rradius 117.558
rwrist -59.0764
rhand -5.17688 -47.9137
rfingers 7.12502
rthumb 20.6235 -76.8381
lclavicle -3.22031e-014 -3.26007e-014
lhumerus 30.4683 24.1107 -6.85069
lradius 32.3659
lwrist 54.2026
lhand -21.9521 -25.0199
lfingers 7.12502
lthumb 4.45499 4.91324
rfemur -9.3909 1.4294 -4.4632
rtibia 25.348
rfoot -1.36402 -21.0865
rtoes -12.0694
lfemur -19.159 1.0928 -33.0304
ltibia 12.6149
lfoot -10.2378 -4.33089
ltoes 16.9449
92
root -0.569091 17.5778 4.75002 6.13355 -65.2718 13.4538
lowerback -10.5196 -1.57222 7.17477
upperback -11.4278 -3.00963 0.0628903
thorax -6.61673 -2.2695 -4.04223
lowerneck -7.01486 16.1592 7.94297
upperneck 19.4969 21.4815 -1.79885
head 8.25255 10.6033 0.330116
rclavicle -9.74045e-015 -6.36111e-015
rhumerus 5.72173 -23.821 13.9872
rradius 117.71
rwrist -59.1382
rhand -5.34829 -47.989
rfingers 7.12502
rthumb 20.4587 -76.9312
lclavicle -9.74045e-015 -6.36111e-015
lhumerus 28.1874 23.5722 -8.04287
lradius 32.5216
lwrist 54.6073
lhand -22.287 -23.0114
lfingers 7.12502
lthumb 4.13167 6.92829
rfemur -9.38121 1.53856 -4.30726
rtibia 25.4332
rfoot -1.30275 -21.1918
rtoes -12.9393
lfemur -19.216 1.01053 -32.8985
ltibia 12.6831
lfoot -10.1853 -4.44092
ltoes 17.4098
93
root -0.562479 17.5783 4.73513 6.32884 -65.1391 13.208
lowerback -10.4544 -1.69144 7.15527
upperback -11.4306 -3.15036 0.33369
thorax -6.65359 -2.32588 -3.74477
lowerneck -6.85297 16.1767 7.2993
upperneck 19.5232 21.6105 -1.81581
head 8.16681 10.6243 0.398321
rclavicle 1.47101e-014 9.54166e-015
rhumerus 6.44944 -23.7285 13.6739
rradius 117.9
rwrist -59.4841
rhand -6.34098 -48.4832
rfingers 7.12502
rthumb 19.5045 -77.5249
lclavicle 1.47101e-014 9.54166e-015
lhumerus 27.6315 23.5203 -8.01684
lradius 32.5255
lwrist 54.6926
lhand -21.7489 -21.3223
lfingers 7.12502
lthumb 4.65126 8.60663
rfemur -9.4178 1.52711 -4.11925
rtibia 25.6205
rfoot -2.22688 -21.1886
rtoes -10.7414
lfemur -19.3217 0.7535 -32.6803
ltibia 12.8662
lfoot -10.1746 -4.36576
ltoes 18.411
94
root -0.556427 17.5759 4.72443 6.09679 -65.0562 13.3461
lowerback -10.315 -1.61898 6.95826
upperback -11.3869 -3.0252 0.348137
thorax -6.64915 -2.24275 -3.61174
lowerneck -6.91382 16.091 6.66669
upperneck 19.6117 21.4815 -1.35881
head 8.07428 10.563 0.595998
rclavicle -3.77691e-015 1.27222e-014
rhumerus 6.51125 -23.6193 13.7499
rradius 117.706
rwrist -59.5085
rhand -3.06265 -45.4645
rfingers 7.12502
rthumb 22.6538 -74.155
lclavicle -3.77691e-015 1.27222e-014
lhumerus 27.963 23.7042 -7.38344
lradius 32.5325
lwrist 54.3247
lhand -22.2192 -20.7029
lfingers 7.12502
lthumb 4.19712 9.23547
rfemur -9.43803 1.37523 -4.1123
rtibia 25.8575
rfoot -3.04665 -21.244
rtoes -8.50927
lfemur -19.2889 0.68564 -32.7126
ltibia 12.9785
lfoot -10.2041 -4.42562
ltoes 18.8543
95
root -0.546956 17.5597 4.70784 5.52199 -65.0011 13.8688
lowerback -10.1435 -1.70328 6.60049
upperback -11.3692 -3.0989 0.396342
thorax -6.70117 -2.24919 -3.357
lowerneck -6.90173 16.1321 6.10345
upperneck 19.6939 21.5232 -0.901724
head 7.98267 10.5884 0.798768
rclavicle 3.35946e-014 1.27222e-014
rhumerus 7.1343 -23.4626 13.1081
rradius 117.306
rwrist -58.9868
rhand -5.81607 -48.9591
rfingers 7.12502
rthumb 20.0092 -77.9489
lclavicle 3.35946e-014 1.27222e-014
lhumerus 27.7724 23.725 -7.25828
lradius 32.6073
lwrist 54.1531
lhand -21.9929 -21.1036
lfingers 7.12502
lthumb 4.41567 8.83032
rfemur -9.51307 1.20516 -4.28854
rtibia 26.1415
rfoot -2.72593 -21.3685
rtoes -9.8254
lfemur -19.2832 1.19021 -33.1022
ltibia 13.0741
lfoot -10.3456 -4.84677
ltoes 16.7456
96
root -0.537409 17.5555 4.69184 5.20152 -64.8709 14.2129
lowerback -10.0481 -1.88809 6.33014
upperback -11.3783 -3.31888 0.492057
thorax -6.76033 -2.33576 -3.10681
lowerneck -6.85201 16.2283 5.94221
upperneck 19.8048 21.6744 -0.848041
head 7.99178 10.6525 0.850367
rclavicle 8.66701e-014 4.77083e-015
rhumerus 7.57309 -23.5356 12.7001
rradius 117.392
rwrist -59.1201
rhand -7.31565 -50.9935
rfingers 7.12502
rthumb 18.5672 -80.1274
lclavicle 8.66701e-014 4.77083e-015
lhumerus 27.1502 23.4165 -7.70258
lradius 32.74
lwrist 54.4208
lhand -20.4843 -22.7682
lfingers 7.12502
lthumb 5.87227 7.13046
rfemur -9.62276 1.12037 -4.38683
rtibia 26.4272
rfoot -2.94978 -21.3799
rtoes -10.3743
lfemur -19.3569 1.42037 -33.3315
ltibia 13.1315
lfoot -10.4146 -5.07044
ltoes 15.6512
